<svg width="54" height="120" viewBox="0 0 54 120" fill="none" xmlns="http://www.w3.org/2000/svg">
<rect width="54" height="120" rx="16" fill="#74F066"/>
<g clip-path="url(#clip0_2_2173)">
<path d="M40.3332 54.7735V56.0001C40.3315 58.8754 39.4005 61.673 37.6789 63.9759C35.9574 66.2788 33.5375 67.9635 30.7803 68.7787C28.0231 69.5939 25.0762 69.496 22.3791 68.4996C19.6821 67.5032 17.3794 65.6616 15.8145 63.2496C14.2495 60.8375 13.5062 57.9842 13.6954 55.1152C13.8846 52.2462 14.9961 49.5152 16.8642 47.3296C18.7323 45.1439 21.2569 43.6207 24.0614 42.987C26.866 42.3534 29.8002 42.6433 32.4265 43.8135M40.3332 45.3335L26.9998 58.6801L22.9998 54.6801" stroke="black" stroke-width="4" stroke-linecap="round" stroke-linejoin="round"/>
</g>
<defs>
<clipPath id="clip0_2_2173">
<rect width="32" height="32" fill="white" transform="translate(11 40)"/>
</clipPath>
</defs>
</svg>
