<svg width="56" height="120" viewBox="0 0 56 120" fill="none" xmlns="http://www.w3.org/2000/svg">
<rect width="56" height="120" rx="16" fill="#F33055"/>
<path d="M39.3332 52H16.6665M37.1105 55.3333L36.4972 64.5333C36.2612 68.072 36.1438 69.8413 34.9905 70.92C33.8372 72 32.0625 72 28.5158 72H27.4838C23.9372 72 22.1625 72 21.0092 70.92C19.8558 69.8413 19.7372 68.072 19.5025 64.5333L18.8892 55.3333" stroke="white" stroke-width="2" stroke-linecap="round"/>
<path d="M20.6665 52H20.8132C21.3498 51.9863 21.8697 51.811 22.3051 51.4969C22.7404 51.1829 23.0708 50.7449 23.2532 50.24L23.2985 50.1027L23.4278 49.7147C23.5385 49.3827 23.5945 49.2173 23.6678 49.076C23.8121 48.7992 24.0192 48.56 24.2725 48.3775C24.5258 48.1951 24.8182 48.0745 25.1265 48.0253C25.2825 48 25.4572 48 25.8065 48H30.1932C30.5425 48 30.7172 48 30.8732 48.0253C31.1814 48.0745 31.4739 48.1951 31.7272 48.3775C31.9805 48.56 32.1876 48.7992 32.3318 49.076C32.4052 49.2173 32.4612 49.3827 32.5718 49.7147L32.7012 50.1027C32.8701 50.6644 33.2196 51.1547 33.6954 51.4977C34.1712 51.8407 34.7469 52.0172 35.3332 52" stroke="white" stroke-width="2"/>
</svg>
