<svg width="27" height="28" viewBox="0 0 27 28" fill="none" xmlns="http://www.w3.org/2000/svg">
<path d="M10.1549 23.9346V20.4116C10.1549 19.5122 10.8635 18.7832 11.7375 18.7832H14.9327C15.3524 18.7832 15.755 18.9547 16.0518 19.2601C16.3486 19.5655 16.5153 19.9797 16.5153 20.4116V23.9346C16.5127 24.3085 16.6552 24.668 16.9112 24.9334C17.1672 25.1987 17.5156 25.3479 17.879 25.3479H20.0589C21.077 25.3506 22.0542 24.9364 22.7751 24.1967C23.4959 23.4569 23.901 22.4525 23.901 21.405V11.3684C23.901 10.5222 23.5365 9.71961 22.9056 9.17674L15.4901 3.0831C14.2002 2.01468 12.3519 2.04918 11.1005 3.16503L3.85419 9.17674C3.19355 9.70361 2.7987 10.5086 2.77919 11.3684V21.3947C2.77919 23.578 4.49937 25.3479 6.62133 25.3479H8.75143C9.50619 25.3479 10.1196 24.7214 10.125 23.9448L10.1549 23.9346Z" fill="white"/>
</svg>
