<svg width="27" height="27" viewBox="0 0 27 27" fill="none" xmlns="http://www.w3.org/2000/svg">
<path d="M26.0821 10.6965L14.9138 0.573094C14.9084 0.568518 14.9032 0.563588 14.8985 0.55834C14.4873 0.199078 13.9515 0 13.3956 0C12.8398 0 12.304 0.199078 11.8928 0.55834L11.8775 0.573094L0.72175 10.6965C0.494193 10.8975 0.31255 11.1417 0.188313 11.4137C0.0640769 11.6856 -4.69666e-05 11.9794 2.58096e-08 12.2764V24.6758C2.58096e-08 25.2449 0.235331 25.7907 0.654222 26.1932C1.07311 26.5956 1.64125 26.8217 2.23366 26.8217H8.93462C9.52702 26.8217 10.0952 26.5956 10.5141 26.1932C10.9329 25.7907 11.1683 25.2449 11.1683 24.6758V18.238H15.6356V24.6758C15.6356 25.2449 15.8709 25.7907 16.2898 26.1932C16.7087 26.5956 17.2768 26.8217 17.8692 26.8217H24.5702C25.1626 26.8217 25.7307 26.5956 26.1496 26.1932C26.5685 25.7907 26.8039 25.2449 26.8039 24.6758V12.2764C26.8039 11.9794 26.7398 11.6856 26.6156 11.4137C26.4913 11.1417 26.3097 10.8975 26.0821 10.6965ZM24.5702 24.6758H17.8692V18.238C17.8692 17.6689 17.6339 17.1231 17.215 16.7206C16.7961 16.3182 16.228 16.0921 15.6356 16.0921H11.1683C10.5759 16.0921 10.0077 16.3182 9.58884 16.7206C9.16995 17.1231 8.93462 17.6689 8.93462 18.238V24.6758H2.23366V12.2764L2.24901 12.263L13.4019 2.14364L24.5562 12.2603L24.5716 12.2737L24.5702 24.6758Z" fill="#A6A6A6"/>
</svg>
