<svg width="32" height="28" viewBox="0 0 32 28" fill="none" xmlns="http://www.w3.org/2000/svg">
<path d="M23.4385 0C23.7214 0 23.9933 0.132431 24.1934 0.368164C24.3933 0.603844 24.5058 0.923595 24.5059 1.25684V3.77051H27.7051C27.9137 3.77053 28.1178 3.84327 28.292 3.97852C28.4662 4.11392 28.6033 4.30714 28.6855 4.5332L31.8857 13.332C31.9426 13.4884 31.9716 13.657 31.9717 13.8271V22.626C31.9717 22.9594 31.8592 23.2789 31.6592 23.5146C31.4592 23.7503 31.1881 23.8828 30.9053 23.8828H28.6201C28.3881 24.9616 27.8576 25.9191 27.1123 26.6025C26.3672 27.2857 25.4499 27.6561 24.5059 27.6562C23.5616 27.6562 22.6437 27.2859 21.8984 26.6025C21.1531 25.9191 20.6227 24.9616 20.3906 23.8828H13.6875C13.4279 25.0676 12.8105 26.1003 11.9512 26.7871C11.0917 27.4739 10.0487 27.7685 9.01855 27.6143C7.98863 27.46 7.04187 26.8681 6.35547 25.9502C5.66899 25.0319 5.29004 23.8498 5.29004 22.626C5.29004 21.4022 5.66899 20.22 6.35547 19.3018C7.04187 18.3838 7.98864 17.7919 9.01855 17.6377C10.0487 17.4835 11.0917 17.778 11.9512 18.4648C12.8105 19.1517 13.4279 20.1843 13.6875 21.3691H20.3906C20.533 20.7285 20.781 20.1268 21.1211 19.5996C21.4612 19.0725 21.8864 18.6299 22.3721 18.2969V2.51367H6.37207V0H23.4385ZM10.3887 20.3037C9.99887 20.1134 9.57006 20.0632 9.15625 20.1602C8.74245 20.2572 8.36279 20.4971 8.06445 20.8486C7.76611 21.2002 7.56278 21.6481 7.48047 22.1357C7.3982 22.6233 7.44016 23.1286 7.60156 23.5879C7.76303 24.0473 8.03688 24.4406 8.3877 24.7168C8.73835 24.9927 9.15061 25.1396 9.57227 25.1396C10.138 25.1396 10.681 24.8748 11.0811 24.4033C11.481 23.9319 11.7061 23.2926 11.7061 22.626C11.7061 22.1289 11.581 21.6428 11.3467 21.2295C11.1123 20.8161 10.7785 20.494 10.3887 20.3037ZM25.3223 20.3037C24.9325 20.1134 24.5027 20.0632 24.0889 20.1602C23.6752 20.2572 23.2953 20.4971 22.9971 20.8486C22.6988 21.2002 22.4954 21.6481 22.4131 22.1357C22.3308 22.6233 22.3728 23.1287 22.5342 23.5879C22.6956 24.0473 22.9695 24.4406 23.3203 24.7168C23.6711 24.9929 24.084 25.1396 24.5059 25.1396C25.0715 25.1395 25.6137 24.8747 26.0137 24.4033C26.4137 23.9319 26.6387 23.2927 26.6387 22.626C26.6387 22.1288 26.5136 21.6429 26.2793 21.2295C26.045 20.8162 25.7119 20.494 25.3223 20.3037ZM24.5059 15.084V17.5977C25.449 17.6009 26.3648 17.973 27.1094 18.6553C27.8541 19.3377 28.3852 20.2924 28.6201 21.3691H29.8389V15.084H24.5059ZM14.8115 14.7109H2.11621V12.6094H14.8115V14.7109ZM24.5059 6.28516V12.5703H29.2881L27.001 6.28516H24.5059ZM10.5801 9.45703H0V7.35547H10.5801V9.45703Z" fill="#C4C4C4"/>
</svg>
