<svg width="40" height="38" viewBox="0 0 40 38" fill="none" xmlns="http://www.w3.org/2000/svg">
<path d="M12.8986 12.407C12.11 11.5465 10.6668 12.3608 11.3122 13.7175C11.7422 14.6227 12.5729 16.8348 13.7326 18.428C14.8928 20.0213 16.1291 19.8509 17.3779 20.2368L18.2751 20.6776L24.4126 27.3837L25.6539 26.358L25.6604 26.3528C25.4789 26.1542 19.8971 20.0547 17.6901 17.6435C15.5058 15.2569 13.2821 12.8262 12.8986 12.407Z" fill="black" stroke="black" stroke-width="0.000283186"/>
<path d="M27.628 13.6652L25.4869 16.0055C25.3497 16.1554 25.1116 16.1708 24.9538 16.0404L24.8777 15.9779C24.721 15.848 24.7038 15.6217 24.8409 15.4719L26.9923 13.1208C27.3455 12.7354 27.1781 12.3942 26.9156 12.1776C26.6536 11.9616 26.275 11.8513 25.9217 12.2372L23.7704 14.5883C23.6337 14.7376 23.395 14.7535 23.2378 14.6232L23.1622 14.5606C23.0044 14.4308 22.9877 14.204 23.1243 14.0547L25.266 11.7143C25.8985 11.0237 24.8409 10.1914 24.2235 10.8661C23.4841 11.6738 22.1786 13.1003 22.1786 13.1003C21.0378 14.338 21.0551 14.9178 21.2161 15.73C21.3468 16.3848 21.5385 16.8558 20.8304 17.6297L19.7853 18.7719L20.8817 19.969L22.0792 18.6605C22.7868 17.8872 23.3048 18.0022 24.0054 18.0335C24.875 18.073 25.4815 18.0083 26.6126 16.7635C26.6126 16.7635 27.9181 15.3359 28.6575 14.5283C29.2749 13.8535 28.26 12.975 27.628 13.6652Z" fill="black" stroke="black" stroke-width="0.000283186"/>
<path d="M17.5718 21.1902L12.8478 26.3523L14.0961 27.3836L18.7229 22.3283L17.7706 21.2877L17.5718 21.1902Z" fill="black" stroke="black" stroke-width="0.000283186"/>
</svg>
