<svg width="41" height="41" viewBox="0 0 41 41" fill="none" xmlns="http://www.w3.org/2000/svg">
<rect width="40.5373" height="40.5373" rx="20.2687" fill="#C90D30"/>
<path fill-rule="evenodd" clip-rule="evenodd" d="M20.2688 9.4104C15.7711 9.4104 12.1251 13.0564 12.1251 17.5541C12.1251 20.5431 13.2627 23.2081 14.6204 25.3288C15.9795 27.452 17.5924 29.082 18.6276 30.0198C19.5683 30.8723 20.9692 30.8723 21.91 30.0198C22.9451 29.082 24.558 27.452 25.9172 25.3288C27.2748 23.2081 28.4124 20.5431 28.4124 17.5541C28.4124 13.0564 24.7664 9.4104 20.2688 9.4104ZM22.9833 17.5541C22.9833 19.0533 21.768 20.2686 20.2688 20.2686C18.7695 20.2686 17.5542 19.0533 17.5542 17.5541C17.5542 16.0548 18.7695 14.8395 20.2688 14.8395C21.768 14.8395 22.9833 16.0548 22.9833 17.5541Z" fill="white"/>
</svg>
