<svg width="27" height="28" viewBox="0 0 27 28" fill="none" xmlns="http://www.w3.org/2000/svg">
<path opacity="0.4" d="M8.26012 21.9703C9.1827 21.9703 9.93865 22.7536 9.93883 23.7213C9.93883 24.6776 9.18281 25.4615 8.26012 25.4615C7.32644 25.4613 6.57066 24.6775 6.57066 23.7213C6.57084 22.7537 7.32655 21.9704 8.26012 21.9703ZM20.767 21.9703C21.6894 21.9704 22.4455 22.7536 22.4457 23.7213C22.4457 24.6775 21.6896 25.4614 20.767 25.4615C19.8331 25.4615 19.0765 24.6776 19.0765 23.7213C19.0767 22.7536 19.8333 21.9703 20.767 21.9703Z" fill="#B8BABF"/>
<path fill-rule="evenodd" clip-rule="evenodd" d="M22.4456 7.31518C23.1237 7.31518 23.5684 7.55713 24.0131 8.08714C24.4577 8.61714 24.5356 9.37757 24.4355 10.0677L23.3794 17.626C23.1793 19.0789 21.9787 20.1493 20.5669 20.1493H8.4385C6.95997 20.1493 5.73713 18.9741 5.61485 17.4543L4.5921 4.89445L2.91348 4.59489C2.46881 4.51423 2.15754 4.06488 2.23535 3.60401C2.31317 3.13162 2.74672 2.82053 3.20251 2.88966L5.85386 3.30445C6.23182 3.37473 6.50974 3.69619 6.54309 4.08793L6.75431 6.66881C6.78766 7.03865 7.0767 7.31518 7.43243 7.31518H22.4456ZM15.7089 13.3053H18.7882C19.2551 13.3053 19.622 12.9136 19.622 12.4412C19.622 11.9573 19.2551 11.5771 18.7882 11.5771H15.7089C15.242 11.5771 14.8751 11.9573 14.8751 12.4412C14.8751 12.9136 15.242 13.3053 15.7089 13.3053Z" fill="#B8BABF"/>
</svg>
